#!OML:ASF F:\VICON\USERDATA\INSTALL\Justin_Nancy\Justin_Nancy.ASF
:FULLY-SPECIFIED
:DEGREES
392
root -0.608708 16.9773 22.3747 1.97521 -3.5051 -4.43011
lowerback 5.34806 2.07938 4.43469
upperback -0.846191 3.15943 2.3963
thorax -3.77307 1.49852 -0.272993
lowerneck -16.8253 -5.26625 -10.1375
upperneck 20.6054 -6.54416 8.17031
head 9.94004 -2.92905 3.65678
rclavicle 4.12602e-014 2.42517e-014
rhumerus -24.7449 -6.06016 -79.0087
rradius 37.7294
rwrist 2.30152
rhand -15.5201 12.4638
rfingers 7.12502
rthumb 10.6631 -17.2456
lclavicle 4.12602e-014 2.42517e-014
lhumerus -40.4544 13.9205 80.499
lradius 19.4383
lwrist -16.4731
lhand -8.19665 27.5858
lfingers 7.12502
lthumb 17.7196 56.7985
rfemur 16.1197 7.02873 30.6199
rtibia 12.4517
rfoot -14.1355 -7.33243
rtoes -10.6175
lfemur -32.2849 -3.68488 -13.5513
ltibia 23.9641
lfoot -7.39771 8.68373
ltoes -7.85658
393
root -0.583209 16.981 22.5908 1.86184 -3.45554 -4.0057
lowerback 5.14192 2.06987 4.14326
upperback -0.808055 3.10829 2.26944
thorax -3.62644 1.48149 -0.228701
lowerneck -16.8472 -5.28107 -10.0757
upperneck 20.742 -6.57111 8.09867
head 9.99058 -2.94414 3.61862
rclavicle -4.5969e-015 1.78906e-014
rhumerus -24.8574 -6.55678 -78.8945
rradius 37.4505
rwrist 2.41819
rhand -15.494 12.2248
rfingers 7.12502
rthumb 10.6883 -17.4833
lclavicle -4.5969e-015 1.78906e-014
lhumerus -40.4996 14.3833 80.2337
lradius 18.9506
lwrist -17.211
lhand -6.41954 29.5111
lfingers 7.12502
lthumb 19.429 58.5604
rfemur 16.7133 6.74174 29.9885
rtibia 13.0476
rfoot -13.9928 -6.69089
rtoes -11.3087
lfemur -32.0954 -3.36637 -14.5055
ltibia 24.9512
lfoot -6.36083 6.65301
ltoes -7.11704
394
root -0.556178 16.9943 22.8091 1.75007 -3.41449 -3.54909
lowerback 5.04056 2.094 3.84567
upperback -0.882979 3.11261 2.09134
thorax -3.65189 1.48711 -0.244692
lowerneck -16.6554 -5.26127 -9.95308
upperneck 20.8708 -6.6014 8.08583
head 9.99823 -2.9545 3.59381
rclavicle 5.65667e-014 1.98785e-014
rhumerus -25.4157 -7.05124 -78.7939
rradius 37.4491
rwrist 2.50991
rhand -16.0142 12.9923
rfingers 7.12502
rthumb 10.1865 -16.7411
lclavicle 5.65667e-014 1.98785e-014
lhumerus -40.7754 15.0224 79.6734
lradius 18.5366
lwrist -18.4871
lhand -5.28051 30.0576
lfingers 7.12502
lthumb 20.5239 58.9927
rfemur 17.1455 6.62683 29.3589
rtibia 13.7623
rfoot -13.5884 -6.23756
rtoes -12.3777
lfemur -31.9491 -3.04346 -15.4434
ltibia 25.8797
lfoot -5.03701 4.458
ltoes -5.18377
395
root -0.536884 17.0078 23.0234 1.61524 -3.45163 -3.31295
lowerback 5.05677 2.14991 3.65443
upperback -0.951613 3.17612 2.01513
thorax -3.73589 1.52002 -0.224048
lowerneck -16.391 -5.27066 -10.0746
upperneck 20.9309 -6.6527 8.25148
head 9.98584 -2.97605 3.67074
rclavicle -1.79527e-014 -8.34896e-015
rhumerus -26.0224 -7.50629 -78.6438
rradius 37.4294
rwrist 2.39659
rhand -16.2309 13.5377
rfingers 7.12502
rthumb 9.97744 -16.2059
lclavicle -1.79527e-014 -8.34896e-015
lhumerus -41.0187 15.0287 79.5758
lradius 18.344
lwrist -18.8417
lhand -5.24541 29.6737
lfingers 7.12502
lthumb 20.5576 58.6052
rfemur 17.3182 6.9374 29.1518
rtibia 14.834
rfoot -12.9467 -6.196
rtoes -13.8099
lfemur -31.7456 -2.71543 -15.9904
ltibia 26.6396
lfoot -3.95429 2.84547
ltoes -4.45416
396
root -0.51895 17.022 23.2376 1.54764 -3.36234 -3.06414
lowerback 4.84244 2.16001 3.41225
upperback -0.972027 3.16163 1.94584
thorax -3.64515 1.51896 -0.151082
lowerneck -16.1055 -5.3132 -10.119
upperneck 20.9272 -6.74342 8.30985
head 9.9442 -3.02211 3.68975
rclavicle -2.70844e-014 -1.07344e-014
rhumerus -26.3285 -8.11546 -78.5164
rradius 37.1122
rwrist 2.4043
rhand -16.1508 13.2111
rfingers 7.12502
rthumb 10.0547 -16.5287
lclavicle -2.70844e-014 -1.07344e-014
lhumerus -41.1722 15.268 79.384
lradius 18.2114
lwrist -18.9366
lhand -5.19199 30.1374
lfingers 7.12502
lthumb 20.6089 59.0633
rfemur 17.0932 6.92822 28.845
rtibia 16.5417
rfoot -12.2355 -5.87025
rtoes -14.2955
lfemur -31.4651 -2.64698 -16.4667
ltibia 27.1444
lfoot -3.33318 1.56587
ltoes -4.80501
397
root -0.499139 17.0427 23.4479 1.50557 -3.17644 -2.54917
lowerback 4.82922 2.1342 2.90614
upperback -1.16668 3.09779 1.80698
thorax -3.85923 1.49283 -0.0116135
lowerneck -15.7704 -5.33737 -10.057
upperneck 21.064 -6.81279 8.21361
head 9.93093 -3.06811 3.64179
rclavicle -2.72273e-014 6.36111e-015
rhumerus -26.921 -8.764 -78.338
rradius 36.8921
rwrist 2.68805
rhand -16.3166 13.3007
rfingers 7.12502
rthumb 9.89472 -16.4468
lclavicle -2.72273e-014 6.36111e-015
lhumerus -41.5858 16.2281 78.6298
lradius 17.9493
lwrist -19.8477
lhand -4.93195 30.6626
lfingers 7.12502
lthumb 20.8588 59.5612
rfemur 16.5486 6.79264 28.1893
rtibia 18.7064
rfoot -11.3727 -5.37213
rtoes -14.4862
lfemur -31.0616 -2.97536 -17.1421
ltibia 27.4142
lfoot -3.11253 0.135758
ltoes -4.63937
398
root -0.478256 17.0619 23.6571 1.33 -2.98215 -1.95091
lowerback 5.07376 2.12691 2.35937
upperback -1.39419 3.06456 1.65251
thorax -4.2535 1.48175 0.121097
lowerneck -15.4438 -5.31698 -10.1689
upperneck 21.3684 -6.81734 8.25434
head 9.98372 -3.08299 3.68426
rclavicle 2.93487e-014 -1.19271e-014
rhumerus -27.6921 -9.73367 -78.0058
rradius 36.4663
rwrist 3.2588
rhand -16.8511 14.2294
rfingers 7.12502
rthumb 9.37905 -15.542
lclavicle 2.93487e-014 -1.19271e-014
lhumerus -42.1026 17.6181 77.502
lradius 17.4988
lwrist -21.5039
lhand -4.8301 30.609
lfingers 7.12502
lthumb 20.9566 59.4969
rfemur 15.9813 6.62095 27.4488
rtibia 21.1386
rfoot -10.3497 -4.85803
rtoes -15.0216
lfemur -30.3899 -3.27253 -17.963
ltibia 27.5151
lfoot -2.62286 -1.44356
ltoes -5.28009
399
root -0.458076 17.0781 23.8715 1.11788 -2.83706 -1.40578
lowerback 5.13716 2.18092 1.92478
upperback -1.51389 3.10497 1.4576
thorax -4.42476 1.50848 0.153396
lowerneck -15.1506 -5.35721 -10.2358
upperneck 21.6496 -6.91588 8.29914
head 10.0431 -3.13637 3.70643
rclavicle 2.39893e-014 1.03368e-014
rhumerus -28.4412 -10.9619 -77.6305
rradius 35.9644
rwrist 3.6978
rhand -17.2308 14.7581
rfingers 7.12502
rthumb 9.01262 -15.0294
lclavicle 2.39893e-014 1.03368e-014
lhumerus -42.4209 18.2189 76.8349
lradius 17.2802
lwrist -22.2496
lhand -4.97052 30.7496
lfingers 7.12502
lthumb 20.8217 59.6523
rfemur 15.4101 6.25069 26.6764
rtibia 23.6634
rfoot -9.1379 -4.21426
rtoes -15.453
lfemur -29.6262 -3.34595 -18.783
ltibia 27.6291
lfoot -1.52117 -2.3276
ltoes -3.90073
400
root -0.430668 17.1003 24.0845 0.985739 -2.71042 -1.01954
lowerback 4.98507 2.25391 1.76342
upperback -1.49772 3.17927 1.28534
thorax -4.31972 1.54853 0.066218
lowerneck -15.0634 -5.51553 -10.259
upperneck 21.7492 -7.15291 8.31335
head 10.0893 -3.24809 3.68393
rclavicle -2.75736e-014 -2.70347e-014
rhumerus -29.1157 -12.0726 -77.269
rradius 35.7368
rwrist 3.91454
rhand -17.0936 14.5826
rfingers 7.12502
rthumb 9.14503 -15.1991
lclavicle -2.75736e-014 -2.70347e-014
lhumerus -42.3851 18.9739 76.217
lradius 17.0027
lwrist -23.0562
lhand -4.77735 30.8585
lfingers 7.12502
lthumb 21.0073 59.7408
rfemur 14.6782 5.71997 25.897
rtibia 26.2003
rfoot -7.70983 -3.30074
rtoes -15.4674
lfemur -28.9557 -3.4858 -19.4064
ltibia 27.8878
lfoot -0.766486 -2.21136
ltoes 0.393542
401
root -0.395242 17.1215 24.3038 0.932124 -2.48104 -0.971719
lowerback 4.63811 2.26816 2.03427
upperback -1.37723 3.1997 1.22556
thorax -3.98013 1.55506 -0.129544
lowerneck -15.2614 -5.69278 -10.2885
upperneck 21.8179 -7.35953 8.22943
head 10.172 -3.34969 3.62584
rclavicle -2.2797e-014 -1.98785e-015
rhumerus -29.6031 -12.8736 -76.9562
rradius 35.4891
rwrist 3.88517
rhand -17.0908 14.8112
rfingers 7.12502
rthumb 9.14769 -14.9704
lclavicle -2.2797e-014 -1.98785e-015
lhumerus -42.1486 19.9496 75.6719
lradius 16.7161
lwrist -23.7827
lhand -4.51922 31.1835
lfingers 7.12502
lthumb 21.2553 60.038
rfemur 13.7975 5.00832 25.3209
rtibia 28.7695
rfoot -5.87032 -2.09492
rtoes -15.403
lfemur -28.3544 -3.52036 -19.7702
ltibia 28.2904
lfoot -1.15567 -2.06898
ltoes 0.862639
